<mxfile host="app.diagrams.net" modified="2021-08-19T11:16:56.857Z" agent="5.0 (Windows NT 10.0; Win64; x64) AppleWebKit/537.36 (KHTML, like Gecko) Chrome/92.0.4515.159 Safari/537.36" etag="reCBawr0uJgpWy0JE9go" version="14.7.1" type="github">
  <diagram name="Architecture" id="Architecture">
    <mxGraphModel dx="868" dy="492" grid="1" gridSize="10" guides="1" tooltips="1" connect="1" arrows="1" fold="1" page="1" pageScale="1" pageWidth="850" pageHeight="1100" math="0" shadow="0">
      <root>
        <mxCell id="0" />
        <mxCell id="1" parent="0" />
        <mxCell id="Cpq1ZpIzhN0V-iwIdP6c-247" style="vsdxID=182;gradientColor=none;shape=stencil(nZBLDoAgDERP0z3SIyjew0SURgSD+Lu9kMZoXLhwN9O+tukAlrNpJg1SzDH4QW/URgNYgZTkjA4UkwJUgGXng+6DX1zLfmoymdXo17xh5zmRJ6Q42BWCfc2oJfdAr+Yv+AP9Cb7OJ3H/2JG1HNGz/84klThPVCc=);dashed=1;labelBackgroundColor=#FFFFFF;rounded=0;html=1;whiteSpace=wrap;strokeWidth=1;perimeterSpacing=0;fillColor=none;shadow=0;strokeColor=#FF8000;" parent="1" vertex="1">
          <mxGeometry x="60" y="190" width="610" height="467" as="geometry" />
        </mxCell>
        <mxCell id="87" value="&lt;font style=&quot;font-size: 11px ; font-family: &amp;#34;segoe ui&amp;#34; ; color: #3f3f3f ; direction: ltr ; letter-spacing: 0px ; line-height: 120% ; opacity: 1&quot;&gt;kubectl&lt;br&gt;&lt;/font&gt;" style="verticalAlign=middle;align=center;vsdxID=271;fillColor=none;gradientColor=none;shape=stencil(nZBLDoAgDERP0z3SIyjew0SURgSD+Lu9kMZoXLhwN9O+tukAlrNpJg1SzDH4QW/URgNYgZTkjA4UkwJUgGXng+6DX1zLfmoymdXo17xh5zmRJ6Q42BWCfc2oJfdAr+Yv+AP9Cb7OJ3H/2JG1HNGz/84klThPVCc=);strokeColor=none;labelBackgroundColor=none;rounded=0;html=1;whiteSpace=wrap;" parent="1" vertex="1">
          <mxGeometry x="181" y="460" width="107" height="19" as="geometry" />
        </mxCell>
        <mxCell id="53" style="vsdxID=182;fillColor=none;gradientColor=none;shape=stencil(nZBLDoAgDERP0z3SIyjew0SURgSD+Lu9kMZoXLhwN9O+tukAlrNpJg1SzDH4QW/URgNYgZTkjA4UkwJUgGXng+6DX1zLfmoymdXo17xh5zmRJ6Q42BWCfc2oJfdAr+Yv+AP9Cb7OJ3H/2JG1HNGz/84klThPVCc=);dashed=1;dashPattern=1.00 2.00;strokeColor=#0078d7;labelBackgroundColor=#FFFFFF;rounded=0;html=1;whiteSpace=wrap;" parent="1" vertex="1">
          <mxGeometry x="322" y="240" width="318" height="190" as="geometry" />
        </mxCell>
        <mxCell id="62" value="&lt;div&gt;&lt;span style=&quot;color: rgb(0 , 112 , 192) ; font-family: &amp;#34;segoe ui&amp;#34; ; font-size: 11px ; letter-spacing: 0px&quot;&gt;VPC&lt;/span&gt;&lt;/div&gt;" style="verticalAlign=middle;align=right;vsdxID=191;fillColor=none;gradientColor=none;shape=stencil(nZBLDoAgDERP0z3SIyjew0SURgSD+Lu9kMZoXLhwN9O+tukAlrNpJg1SzDH4QW/URgNYgZTkjA4UkwJUgGXng+6DX1zLfmoymdXo17xh5zmRJ6Q42BWCfc2oJfdAr+Yv+AP9Cb7OJ3H/2JG1HNGz/84klThPVCc=);strokeColor=none;labelBackgroundColor=none;rounded=0;html=1;whiteSpace=wrap;" parent="1" vertex="1">
          <mxGeometry x="527" y="637" width="143" height="20" as="geometry" />
        </mxCell>
        <mxCell id="24" value="&lt;p style=&quot;align:left;margin-left:0;margin-right:0;margin-top:0px;margin-bottom:0px;text-indent:0;valign:bottom;direction:ltr;&quot;&gt;&lt;font style=&quot;font-size:8px;font-family:Segoe UI;color:#595959;direction:ltr;letter-spacing:0px;line-height:120%;opacity:1&quot;&gt;Namespace&lt;br/&gt;&lt;/font&gt;&lt;/p&gt;" style="verticalAlign=bottom;align=left;vsdxID=24;fillColor=none;gradientColor=none;shape=stencil(nZBLDoAgDERP0z3SIyjew0SURgSD+Lu9kMZoXLhwN9O+tukAlrNpJg1SzDH4QW/URgNYgZTkjA4UkwJUgGXng+6DX1zLfmoymdXo17xh5zmRJ6Q42BWCfc2oJfdAr+Yv+AP9Cb7OJ3H/2JG1HNGz/84klThPVCc=);strokeColor=#bfbfbf;spacingBottom=-1;spacingRight=-1;labelBackgroundColor=none;rounded=0;html=1;whiteSpace=wrap;" parent="1" vertex="1">
          <mxGeometry x="330" y="252" width="95" height="166" as="geometry" />
        </mxCell>
        <mxCell id="27" value="&lt;font style=&quot;font-size:12px;font-family:Segoe UI;color:#000000;direction:ltr;letter-spacing:0px;line-height:120%;opacity:1&quot;&gt;Front end&lt;br/&gt;&lt;/font&gt;" style="verticalAlign=middle;align=center;vsdxID=29;fillColor=none;gradientColor=none;shape=stencil(nZBLDoAgDERP0z3SIyjew0SURgSD+Lu9kMZoXLhwN9O+tukAlrNpJg1SzDH4QW/URgNYgZTkjA4UkwJUgGXng+6DX1zLfmoymdXo17xh5zmRJ6Q42BWCfc2oJfdAr+Yv+AP9Cb7OJ3H/2JG1HNGz/84klThPVCc=);strokeColor=none;labelBackgroundColor=none;rounded=0;html=1;whiteSpace=wrap;" parent="1" vertex="1">
          <mxGeometry x="330" y="252" width="95" height="19" as="geometry" />
        </mxCell>
        <mxCell id="28" value="&lt;font style=&quot;font-size:12px;font-family:Segoe UI;color:#000000;direction:ltr;letter-spacing:0px;line-height:120%;opacity:1&quot;&gt;Back-end services&lt;br/&gt;&lt;/font&gt;" style="verticalAlign=middle;align=center;vsdxID=30;fillColor=none;gradientColor=none;shape=stencil(nZBLDoAgDERP0z3SIyjew0SURgSD+Lu9kMZoXLhwN9O+tukAlrNpJg1SzDH4QW/URgNYgZTkjA4UkwJUgGXng+6DX1zLfmoymdXo17xh5zmRJ6Q42BWCfc2oJfdAr+Yv+AP9Cb7OJ3H/2JG1HNGz/84klThPVCc=);strokeColor=none;labelBackgroundColor=none;rounded=0;html=1;whiteSpace=wrap;" parent="1" vertex="1">
          <mxGeometry x="431" y="252" width="159" height="19" as="geometry" />
        </mxCell>
        <mxCell id="30" style="vsdxID=32;fillColor=none;gradientColor=none;strokeColor=none;spacingTop=-3;spacingBottom=-3;spacingLeft=-3;spacingRight=-3;labelBackgroundColor=none;rounded=0;html=1;whiteSpace=wrap;" parent="1" vertex="1">
          <mxGeometry x="444" y="558" width="42" height="45.22" as="geometry" />
        </mxCell>
        <mxCell id="31" style="vsdxID=33;fillColor=#FFFFFF;gradientColor=none;shape=stencil(lZHdDsIgDIWfprekA2bc9ZzvsWRMiAgLw7+3F2yMzGRLvDttv540pyDaWfeTAo5zDP6s7maIGsQBODdOq2BiUiA6EO3ogzoFf3UD1VOfyawu/pYdHrRXI6vyEscnNfBdHYm1xhUsLsC6YXKdlQ3bywVf4Yb1Z1iY79bpf47eZpP4JjMaaynYcv6bZGrRF0T3Ag==);strokeColor=#FFFFFF;strokeWidth=2;spacingTop=-3;spacingBottom=-3;spacingLeft=-3;spacingRight=-3;labelBackgroundColor=none;rounded=0;html=1;whiteSpace=wrap;" parent="30" vertex="1">
          <mxGeometry width="42" height="42" as="geometry" />
        </mxCell>
        <mxCell id="TYq_dASSvoaYxZohxJN0-180" value="" style="shape=image;imageAspect=0;aspect=fixed;verticalLabelPosition=bottom;verticalAlign=top;image=https://cdn.worldvectorlogo.com/logos/aws-iam.svg;" parent="30" vertex="1">
          <mxGeometry x="6.5" width="23.65" height="45.22" as="geometry" />
        </mxCell>
        <mxCell id="159" style="vsdxID=111;edgeStyle=none;dashed=1;startArrow=none;endArrow=block;startSize=5;endSize=2;strokeColor=#2e75b6;spacingTop=0;spacingBottom=0;spacingLeft=0;spacingRight=0;verticalAlign=middle;html=1;labelBackgroundColor=#ffffff;rounded=0;" parent="1" edge="1">
          <mxGeometry relative="1" as="geometry">
            <mxPoint x="-1" as="offset" />
            <Array as="points" />
            <mxPoint x="495" y="360" as="sourcePoint" />
            <mxPoint x="554" y="360" as="targetPoint" />
          </mxGeometry>
        </mxCell>
        <mxCell id="161" style="vsdxID=116;edgeStyle=none;startArrow=none;endArrow=none;startSize=5;endSize=5;strokeColor=#0078d7;spacingTop=0;spacingBottom=0;spacingLeft=0;spacingRight=0;verticalAlign=middle;html=1;labelBackgroundColor=#ffffff;rounded=0;exitX=0.186;exitY=1.022;exitDx=0;exitDy=0;exitPerimeter=0;" parent="1" source="53" edge="1">
          <mxGeometry relative="1" as="geometry">
            <Array as="points" />
            <mxPoint x="381" y="493" as="sourcePoint" />
            <mxPoint x="381" y="580" as="targetPoint" />
          </mxGeometry>
        </mxCell>
        <mxCell id="162" style="vsdxID=134;edgeStyle=none;startArrow=block;endArrow=none;startSize=2;endSize=2;strokeColor=#0078d7;spacingTop=0;spacingBottom=0;spacingLeft=0;spacingRight=0;verticalAlign=middle;html=1;labelBackgroundColor=#ffffff;rounded=0;entryX=0.967;entryY=0.519;entryDx=0;entryDy=0;entryPerimeter=0;" parent="1" edge="1">
          <mxGeometry relative="1" as="geometry">
            <Array as="points" />
            <mxPoint x="350" y="336" as="sourcePoint" />
            <mxPoint x="281.18499999999995" y="336.68399999999997" as="targetPoint" />
          </mxGeometry>
        </mxCell>
        <mxCell id="163" style="vsdxID=174;edgeStyle=none;startArrow=block;endArrow=none;startSize=2;endSize=2;strokeColor=#0078d7;spacingTop=0;spacingBottom=0;spacingLeft=0;spacingRight=0;verticalAlign=middle;html=1;labelBackgroundColor=#ffffff;rounded=0;entryX=1;entryY=0.5;entryDx=0;entryDy=0;" parent="1" target="119" edge="1">
          <mxGeometry relative="1" as="geometry">
            <Array as="points" />
            <mxPoint x="430" y="336" as="sourcePoint" />
            <mxPoint x="413" y="336" as="targetPoint" />
          </mxGeometry>
        </mxCell>
        <mxCell id="160" style="vsdxID=115;edgeStyle=none;startArrow=block;endArrow=none;startSize=2;endSize=5;strokeColor=#0078d7;spacingTop=0;spacingBottom=0;spacingLeft=0;spacingRight=0;verticalAlign=middle;html=1;labelBackgroundColor=#ffffff;rounded=0;" parent="1" edge="1">
          <mxGeometry relative="1" as="geometry">
            <Array as="points" />
            <mxPoint x="434" y="581" as="sourcePoint" />
            <mxPoint x="381" y="581" as="targetPoint" />
          </mxGeometry>
        </mxCell>
        <mxCell id="43" value="&lt;font style=&quot;font-size: 11px; font-family: &amp;quot;Segoe UI&amp;quot;; color: rgb(0, 0, 0); direction: ltr; letter-spacing: 0px; line-height: 120%; opacity: 1;&quot;&gt;Kubernetes cluster&lt;br style=&quot;font-size: 11px;&quot;&gt;&lt;/font&gt;" style="verticalAlign=middle;align=left;vsdxID=112;fillColor=none;gradientColor=none;shape=stencil(nZBLDoAgDERP0z3SIyjew0SURgSD+Lu9kMZoXLhwN9O+tukAlrNpJg1SzDH4QW/URgNYgZTkjA4UkwJUgGXng+6DX1zLfmoymdXo17xh5zmRJ6Q42BWCfc2oJfdAr+Yv+AP9Cb7OJ3H/2JG1HNGz/84klThPVCc=);strokeColor=none;labelBackgroundColor=none;rounded=0;html=1;whiteSpace=wrap;fontSize=11;" parent="1" vertex="1">
          <mxGeometry x="322" y="520" width="47" height="28" as="geometry" />
        </mxCell>
        <mxCell id="44" style="vsdxID=126;fillColor=none;gradientColor=none;strokeColor=none;labelBackgroundColor=none;rounded=0;html=1;whiteSpace=wrap;" parent="1" vertex="1">
          <mxGeometry x="232" y="129" width="76.5" height="60" as="geometry" />
        </mxCell>
        <mxCell id="45" style="vsdxID=127;fillColor=#59b4d9;gradientColor=none;shape=stencil(vVLLDsIgEPwajjQUTBPOVf+DWNoSEZot2vr3gqD2YTz04G13dnZnFwaxsm9FJxElvQN7loOqXIvYHlGqTCtBOR8hdkCsrC3IBuzVVDHvRGCG6GJvYcIY+0jooOQeM84yzp/IMZIFnHwVEnmXkTzyITUUGaEReVFm83KS5o9YjKrHYJ1wypqZthbQSOyVcK1FMyv1g5TdCk67aWUmh/Diq/LWO96br17mD7csxX9QNxJXH+2Dj0VqpXV02LS+tJSHoh3Z4QE=);strokeColor=none;strokeWidth=2;spacingTop=-3;spacingBottom=-3;spacingLeft=-3;spacingRight=-3;labelBackgroundColor=none;rounded=0;html=1;whiteSpace=wrap;" parent="44" vertex="1">
          <mxGeometry y="9" width="46" height="30" as="geometry" />
        </mxCell>
        <mxCell id="46" style="vsdxID=128;fillColor=#a0a1a2;gradientColor=none;shape=stencil(tZLdDoIwDIWfZpcjg4mRa8T3WGTA4txINwXf3uFAfkQvSLxre76uaXcQTU3Fao4iYizoC29EbitEjyiKhKo4COsiRDNE00IDL0HfVO7zmnVkF131vXuh9X3JvmuJyMOn5JWdPCmFmpC77yCDs1NgAAMSehZ6OIyDhPpSO20no36Iex2zVhgM2jIrtJrRkkHJsRuGC8nKmWQazuuP8uoei9HkBzqI2+D3UpuvtPo5fzmRC0aHFEJKb7CpvnSUK3k30uwJ);strokeColor=none;strokeWidth=2;spacingTop=-3;spacingBottom=-3;spacingLeft=-3;spacingRight=-3;labelBackgroundColor=none;rounded=0;html=1;whiteSpace=wrap;" parent="44" vertex="1">
          <mxGeometry width="46" height="11" as="geometry" />
        </mxCell>
        <mxCell id="47" style="vsdxID=129;fillColor=#FFFFFF;gradientColor=none;fillOpacity=20;strokeOpacity=20;shape=stencil(vVLREoIgEPwaHnFQ0sZns/9gEpWJxDko8e/DMNO0Xprp7W53j7vjFtFM16zlKCLagDrzThSmRvSAokg0NQdhXIRojmhWKuAVqGtT+Lxlg3KILuo2vGB93S6I06EoIr0HyCM7ei2Dk2Ng0iZeCv0T2IcesfNiMtHJ+LbFzAqNQRlmhGoWYsmg4th1wqVk1YLSHeftCh5nk6LhnzqncUB/2WP1KyEh/9okDRK62XtTPQ22db6l9PupXfDySCmk9Bab8++ecpD3I83v);strokeColor=none;strokeWidth=2;spacingTop=-3;spacingBottom=-3;spacingLeft=-3;spacingRight=-3;labelBackgroundColor=none;rounded=0;html=1;whiteSpace=wrap;" parent="44" vertex="1">
          <mxGeometry width="40" height="39" as="geometry" />
        </mxCell>
        <mxCell id="48" style="vsdxID=130;fillColor=#FFFFFF;gradientColor=none;shape=stencil(nZBLDoAgDERP0z3SIyjew0SURgSD+Lu9kMZoXLhwN9O+tukAlrNpJg1SzDH4QW/URgNYgZTkjA4UkwJUgGXng+6DX1zLfmoymdXo17xh5zmRJ6Q42BWCfc2oJfdAr+Yv+AP9Cb7OJ3H/2JG1HNGz/84klThPVCc=);strokeColor=none;strokeWidth=2;spacingTop=-3;spacingBottom=-3;spacingLeft=-3;spacingRight=-3;labelBackgroundColor=none;rounded=0;html=1;whiteSpace=wrap;" parent="44" vertex="1">
          <mxGeometry x="11" y="4" width="31" height="3" as="geometry" />
        </mxCell>
        <mxCell id="49" style="vsdxID=131;fillColor=#59b4d9;gradientColor=none;shape=stencil(lVHREoIgEPwaHnEQtHw3+w8mUZlInIOS/j4InVKnqd7udm/3Fg6x0nR8EIgSY0GfxShr2yF2QJTKvhMgra8QqxArGw2iBX3t69gPPEyG6qJvwcFFXUpI0FByj31eJHnxRI5xnMPJs+DWNIGNYvbM0iSjC9dph8PcSYNBW26l7hec4tAK7LfhRvF2ChcpMwoxbOBP+Xb7Tb4Z+vrmvxOSHxL64vX7jVQqHu+dX1/LQ/HSrHoA);strokeColor=none;strokeWidth=2;spacingTop=-3;spacingBottom=-3;spacingLeft=-3;spacingRight=-3;labelBackgroundColor=none;rounded=0;html=1;whiteSpace=wrap;" parent="44" vertex="1">
          <mxGeometry x="2" y="1" width="7" height="7" as="geometry" />
        </mxCell>
        <mxCell id="50" style="vsdxID=132;fillColor=#FFFFFF;gradientColor=none;shape=stencil(nZLdDoIwDIWfprdLtzqQa8T3IGHIIjIyhj9vL3MxgkYQ70677zRdeoDSrspbBQI7Z81RXXThKqAdCKGbSlntBgWUAaWlsepgTd8UoW5zT3p1Mmc/4Rp8MmI89i6Bt9DhiI96H/BaNyOcEhbT7zhOULlq8Az8ufQMLCKG08kbzjD+bnj+6E9cblnC16yzYFi80CBe1y11XYdwjN/f0zC0QpIouwM=);strokeColor=none;strokeWidth=2;spacingTop=-3;spacingBottom=-3;spacingLeft=-3;spacingRight=-3;labelBackgroundColor=none;rounded=0;html=1;whiteSpace=wrap;" parent="44" vertex="1">
          <mxGeometry x="3" y="3" width="6" height="5" as="geometry" />
        </mxCell>
        <mxCell id="51" value="&lt;font style=&quot;font-size:8px;font-family:Segoe UI;color:#2e75b6;direction:ltr;letter-spacing:0px;line-height:120%;opacity:1&quot;&gt;Pod autoscaling&lt;br/&gt;&lt;/font&gt;" style="verticalAlign=middle;align=center;vsdxID=168;fillColor=none;gradientColor=none;shape=stencil(nZBLDoAgDERP0z3SIyjew0SURgSD+Lu9kMZoXLhwN9O+tukAlrNpJg1SzDH4QW/URgNYgZTkjA4UkwJUgGXng+6DX1zLfmoymdXo17xh5zmRJ6Q42BWCfc2oJfdAr+Yv+AP9Cb7OJ3H/2JG1HNGz/84klThPVCc=);strokeColor=none;labelBackgroundColor=none;rounded=0;html=1;whiteSpace=wrap;" parent="1" vertex="1">
          <mxGeometry x="494" y="361" width="60" height="19" as="geometry" />
        </mxCell>
        <mxCell id="63" value="&lt;font style=&quot;font-size:11px;font-family:Segoe UI;color:#000000;direction:ltr;letter-spacing:0px;line-height:120%;opacity:1&quot;&gt;Ingress&lt;br/&gt;(API Gateway)&lt;br/&gt;&lt;/font&gt;" style="verticalAlign=middle;align=center;vsdxID=192;fillColor=none;gradientColor=none;shape=stencil(nZBLDoAgDERP0z3SIyjew0SURgSD+Lu9kMZoXLhwN9O+tukAlrNpJg1SzDH4QW/URgNYgZTkjA4UkwJUgGXng+6DX1zLfmoymdXo17xh5zmRJ6Q42BWCfc2oJfdAr+Yv+AP9Cb7OJ3H/2JG1HNGz/84klThPVCc=);strokeColor=none;labelBackgroundColor=none;rounded=0;html=1;whiteSpace=wrap;" parent="1" vertex="1">
          <mxGeometry x="332" y="358" width="92" height="35" as="geometry" />
        </mxCell>
        <mxCell id="168" style="vsdxID=273;edgeStyle=none;dashed=1;dashPattern=2.00 2.00;startArrow=block;endArrow=none;startSize=2;endSize=2;strokeColor=#7f7f7f;spacingTop=0;spacingBottom=0;spacingLeft=0;spacingRight=0;verticalAlign=middle;html=1;labelBackgroundColor=#ffffff;rounded=0;" parent="1" edge="1">
          <mxGeometry relative="1" as="geometry">
            <Array as="points">
              <mxPoint x="351" y="479" />
            </Array>
            <mxPoint x="351" y="432" as="sourcePoint" />
            <mxPoint x="150" y="479.43" as="targetPoint" />
          </mxGeometry>
        </mxCell>
        <mxCell id="169" style="vsdxID=276;edgeStyle=none;dashed=1;dashPattern=2.00 2.00;startArrow=block;endArrow=none;startSize=2;endSize=2;strokeColor=#7f7f7f;spacingTop=0;spacingBottom=0;spacingLeft=0;spacingRight=0;verticalAlign=middle;html=1;labelBackgroundColor=#ffffff;rounded=0;entryX=0.521;entryY=0.959;entryDx=0;entryDy=0;entryPerimeter=0;exitX=0.993;exitY=0.247;exitDx=0;exitDy=0;exitPerimeter=0;" parent="1" source="153" edge="1">
          <mxGeometry relative="1" as="geometry">
            <mxPoint x="-1" as="offset" />
            <Array as="points">
              <mxPoint x="189" y="434" />
            </Array>
            <mxPoint x="147" y="312.16999999999996" as="sourcePoint" />
            <mxPoint x="189.48700000000008" y="168.31899999999996" as="targetPoint" />
          </mxGeometry>
        </mxCell>
        <mxCell id="80" value="&lt;font style=&quot;font-size: 11px ; font-family: &amp;#34;segoe ui&amp;#34; ; direction: ltr ; letter-spacing: 0px ; line-height: 120% ; opacity: 1&quot;&gt;&lt;font color=&quot;#ff8000&quot;&gt;AWS IAM&lt;/font&gt;&lt;br&gt;&lt;/font&gt;" style="verticalAlign=middle;align=center;vsdxID=224;fillColor=none;gradientColor=none;shape=stencil(nZBLDoAgDERP0z3SIyjew0SURgSD+Lu9kMZoXLhwN9O+tukAlrNpJg1SzDH4QW/URgNYgZTkjA4UkwJUgGXng+6DX1zLfmoymdXo17xh5zmRJ6Q42BWCfc2oJfdAr+Yv+AP9Cb7OJ3H/2JG1HNGz/84klThPVCc=);strokeColor=none;labelBackgroundColor=none;rounded=0;html=1;whiteSpace=wrap;" parent="1" vertex="1">
          <mxGeometry x="419" y="603" width="92" height="35" as="geometry" />
        </mxCell>
        <mxCell id="88" value="&lt;font style=&quot;font-size:11px;font-family:Segoe UI;color:#3f3f3f;direction:ltr;letter-spacing:0px;line-height:120%;opacity:1&quot;&gt;docker pull&lt;br/&gt;&lt;/font&gt;" style="verticalAlign=middle;align=center;vsdxID=275;fillColor=none;gradientColor=none;shape=stencil(nZBLDoAgDERP0z3SIyjew0SURgSD+Lu9kMZoXLhwN9O+tukAlrNpJg1SzDH4QW/URgNYgZTkjA4UkwJUgGXng+6DX1zLfmoymdXo17xh5zmRJ6Q42BWCfc2oJfdAr+Yv+AP9Cb7OJ3H/2JG1HNGz/84klThPVCc=);strokeColor=none;labelBackgroundColor=none;rounded=0;html=1;whiteSpace=wrap;" parent="1" vertex="1">
          <mxGeometry x="150" y="404" width="47" height="28" as="geometry" />
        </mxCell>
        <mxCell id="177" style="vsdxID=388;edgeStyle=none;startArrow=block;endArrow=none;startSize=2;endSize=5;strokeColor=#0078d7;spacingTop=0;spacingBottom=0;spacingLeft=0;spacingRight=0;verticalAlign=middle;html=1;labelBackgroundColor=#ffffff;rounded=0;" parent="1" edge="1">
          <mxGeometry relative="1" as="geometry">
            <Array as="points" />
            <mxPoint x="434" y="592" as="sourcePoint" />
            <mxPoint x="139" y="592" as="targetPoint" />
          </mxGeometry>
        </mxCell>
        <mxCell id="101" style="vsdxID=301;fillColor=none;gradientColor=none;labelBackgroundColor=none;rounded=0;strokeColor=none;html=1;whiteSpace=wrap;" parent="1" vertex="1">
          <mxGeometry x="444" y="339" width="46" height="46" as="geometry" />
        </mxCell>
        <mxCell id="102" value="" style="verticalAlign=top;align=center;vsdxID=302;fillColor=#FFFFFF;gradientColor=none;shape=stencil(vVHLDsIgEPwajiQI6RfU+h8bu22JCGRB2/69kG1iazx58DazM/vIjjBtmiCi0CplCjecbZ8nYc5Ca+snJJsLEqYTph0C4Ujh4XvmEaqzont41gkL96naodXKrGF6YSfQtUi0OXXDVlqPfJNP6usotUhYbJIUMmQb/GGrAxpRljVycDBuc1hKM2LclX8/7H9nFfB+82Cd45T2+mcspcSRmu4F);strokeColor=#7f7f7f;labelBackgroundColor=none;rounded=0;html=1;whiteSpace=wrap;" parent="101" vertex="1">
          <mxGeometry width="46" height="46" as="geometry" />
        </mxCell>
        <mxCell id="103" style="vsdxID=303;fillColor=none;gradientColor=none;labelBackgroundColor=none;rounded=0;strokeColor=none;html=1;whiteSpace=wrap;" parent="101" vertex="1">
          <mxGeometry x="13" y="10" width="20" height="24" as="geometry" />
        </mxCell>
        <mxCell id="104" style="vsdxID=304;fillColor=#dbeef3;gradientColor=none;shape=stencil(lZDRDoIwDEW/pq+krBh8R/wPEoZrnBsZE/Xv3WyMYDTGt9v23Ka9QM1kulGDwikGf9QX7qMB2oFS7IwOHJMCaoGawQd9CP7seqnHLpNZnfycN1zFVyJmj8Kb1FVdYP3o7AW37Bb4Zk3jd/KvtdW2wHJleN71Ef95dBKvhwe2VvJazt8DSi0Jl9o7);strokeColor=none;spacingTop=-3;spacingBottom=-3;spacingLeft=-3;spacingRight=-3;labelBackgroundColor=none;rounded=0;html=1;whiteSpace=wrap;" parent="103" vertex="1">
          <mxGeometry width="19" height="13" as="geometry" />
        </mxCell>
        <mxCell id="105" style="vsdxID=305;fillColor=#dbeef3;gradientColor=none;shape=stencil(UzV2Ls5ILEhVNTIoLinKz04tz0wpyVA1dlE1MsrMy0gtyiwBslSNXVWNndPyi1LTi/JL81Ig/IJEkEoQKze/DGRCBUSfoYEBSI+RQSUq3w2iOCczD0mxKapaPCpRFVpa6pkZIisGMhAOSsvMyYH4B1ke3QNAIYjnjV0B);strokeColor=#556a8a;spacingTop=-3;spacingBottom=-3;spacingLeft=-3;spacingRight=-3;labelBackgroundColor=none;rounded=0;html=1;whiteSpace=wrap;" parent="103" vertex="1">
          <mxGeometry width="20" height="6" as="geometry" />
        </mxCell>
        <mxCell id="106" style="vsdxID=306;fillColor=#dbeef3;gradientColor=none;shape=stencil(jZHdDsIgDIWfprdLpUMfYM73WDImRISF4d/bCzbGSTLd3Wn79eSkBWom3Y0KBE4x+JO6mT5qoD0IYZxWwcSkgFqgZvBBHYO/uJ7rsctkVmd/zQ533sO8IfDB1VZW9e7VOTBsjZvB8pveIC6z7+FK6xL/4VykoLqStEyvtv0TN4nPDQdjLb9gPi9vnlr8L2qf);strokeColor=#556a8a;spacingTop=-3;spacingBottom=-3;spacingLeft=-3;spacingRight=-3;labelBackgroundColor=none;rounded=0;html=1;whiteSpace=wrap;" parent="103" vertex="1">
          <mxGeometry y="6" width="19" height="18" as="geometry" />
        </mxCell>
        <mxCell id="172" style="vsdxID=307;edgeStyle=none;startArrow=none;endArrow=none;startSize=5;endSize=5;strokeColor=#556a8a;spacingTop=0;spacingBottom=0;spacingLeft=0;spacingRight=0;verticalAlign=middle;html=1;labelBackgroundColor=#ffffff;rounded=0;" parent="103" edge="1">
          <mxGeometry relative="1" as="geometry">
            <Array as="points" />
            <mxPoint x="10" y="12" as="sourcePoint" />
            <mxPoint x="10" y="24" as="targetPoint" />
          </mxGeometry>
        </mxCell>
        <mxCell id="119" style="vsdxID=343;fillColor=none;gradientColor=none;labelBackgroundColor=none;rounded=0;strokeColor=none;html=1;whiteSpace=wrap;" parent="1" vertex="1">
          <mxGeometry x="354" y="313" width="46" height="46" as="geometry" />
        </mxCell>
        <mxCell id="120" value="" style="verticalAlign=top;align=center;vsdxID=337;fillColor=#FFFFFF;gradientColor=none;shape=stencil(vVHLDsIgEPwajiQI6RfU+h8bu22JCGRB2/69kG1iazx58DazM/vIjjBtmiCi0CplCjecbZ8nYc5Ca+snJJsLEqYTph0C4Ujh4XvmEaqzont41gkL96naodXKrGF6YSfQtUi0OXXDVlqPfJNP6usotUhYbJIUMmQb/GGrAxpRljVycDBuc1hKM2LclX8/7H9nFfB+82Cd45T2+mcspcSRmu4F);strokeColor=#7f7f7f;labelBackgroundColor=none;rounded=0;html=1;whiteSpace=wrap;" parent="119" vertex="1">
          <mxGeometry width="46" height="46" as="geometry" />
        </mxCell>
        <mxCell id="121" style="vsdxID=23;fillColor=none;gradientColor=none;image;aspect=fixed;image=data:image/png,iVBORw0KGgoAAAANSUhEUgAAADsAAABECAIAAACwM9rwAAACVElEQVR4nOXawXHCMBAF0JUnjRBKSC6hkrRADTnTQmiBNnLhBCUAF5oIF+WwxBhbkne1X7YZ/gVmEsSbnZWsQXLee3qovMBHdOsFv5n9/PKb42aPHB9b45pLDTEH5YaJm1ZOS8yxuwHirpUTFJMZbRXHuBQXc7Ld+eKElZMWczLcOeJeK0ciJj1aJxZaOUIxR+5WiFVcUoo5ErdIrLVyMsSctLtHnGflZIspiU6JLVyyiTlBd1hstHLsYk7L3RZDrByUmO7RNzHQygGKOey+iuFcKiDmVFSGWy7V2AB1qrwC++XWL7fG7z5u9jk7Ifr+UH2gC9XujzlN6+vnmxyg64pgXTPq3SqtqtKwPrY3iTAPOPOAYw1TZnCNB0Dju6I0ukgfF0WXmnnl0E+5VsSeedgfCOtgajwkGtYVg6GRfTwM+ilnXjMDlBld4/PFfb0H/4JCQ8XnC78WRYPE50vN5ZRDI8T31jqF0E+/VrQSK7MlxWsMR2vEkX7tjQR9mjvhaDJxZynQRoiWuAVim7WOsD163UmxubTZOc1dbBGMiCPWbp1UE0v7z8Fih35366urX+0yBMERhOPMDreDhHvxSD0gDLud996tFxO31pkdfEU09dI2c5q7ijpdNeX41e7udKzENgAYrmzgBHKC7mYXRE95J+LudmzyXHpUdGx29d9WGMWdWAykN0IGc/cuXMpbNyXdwkVWfbOpBFr1QMi8PQZ0a59fpht6RnfesxZxC1LvtuwLMDdN5Wj7HgZ5mzftRu23wPePKeIGbg/x4uu4/274VvYPeI1lfaDCoMIAAAAASUVORK5CYII=;strokeColor=none;labelBackgroundColor=none;rounded=0;html=1;whiteSpace=wrap;" parent="119" vertex="1">
          <mxGeometry x="11" y="10" width="22" height="26" as="geometry" />
        </mxCell>
        <mxCell id="122" style="vsdxID=344;fillColor=none;gradientColor=none;labelBackgroundColor=none;rounded=0;strokeColor=none;html=1;whiteSpace=wrap;" parent="1" vertex="1">
          <mxGeometry x="559" y="339" width="46" height="46" as="geometry" />
        </mxCell>
        <mxCell id="123" value="" style="verticalAlign=top;align=center;vsdxID=345;fillColor=#FFFFFF;gradientColor=none;shape=stencil(vVHLDsIgEPwajiQI6RfU+h8bu22JCGRB2/69kG1iazx58DazM/vIjjBtmiCi0CplCjecbZ8nYc5Ca+snJJsLEqYTph0C4Ujh4XvmEaqzont41gkL96naodXKrGF6YSfQtUi0OXXDVlqPfJNP6usotUhYbJIUMmQb/GGrAxpRljVycDBuc1hKM2LclX8/7H9nFfB+82Cd45T2+mcspcSRmu4F);strokeColor=#7f7f7f;labelBackgroundColor=none;rounded=0;html=1;whiteSpace=wrap;" parent="122" vertex="1">
          <mxGeometry width="46" height="46" as="geometry" />
        </mxCell>
        <mxCell id="124" style="vsdxID=346;fillColor=none;gradientColor=none;labelBackgroundColor=none;rounded=0;strokeColor=none;html=1;whiteSpace=wrap;" parent="122" vertex="1">
          <mxGeometry x="13" y="10" width="20" height="24" as="geometry" />
        </mxCell>
        <mxCell id="125" style="vsdxID=347;fillColor=#dbeef3;gradientColor=none;shape=stencil(lZDRDoIwDEW/pq+krBh8R/wPEoZrnBsZE/Xv3WyMYDTGt9v23Ka9QM1kulGDwikGf9QX7qMB2oFS7IwOHJMCaoGawQd9CP7seqnHLpNZnfycN1zFVyJmj8Kb1FVdYP3o7AW37Bb4Zk3jd/KvtdW2wHJleN71Ef95dBKvhwe2VvJazt8DSi0Jl9o7);strokeColor=none;spacingTop=-3;spacingBottom=-3;spacingLeft=-3;spacingRight=-3;labelBackgroundColor=none;rounded=0;html=1;whiteSpace=wrap;" parent="124" vertex="1">
          <mxGeometry width="19" height="13" as="geometry" />
        </mxCell>
        <mxCell id="126" style="vsdxID=348;fillColor=#dbeef3;gradientColor=none;shape=stencil(UzV2Ls5ILEhVNTIoLinKz04tz0wpyVA1dlE1MsrMy0gtyiwBslSNXVWNndPyi1LTi/JL81Ig/IJEkEoQKze/DGRCBUSfoYEBSI+RQSUq3w2iOCczD0mxKapaPCpRFVpa6pkZIisGMhAOSsvMyYH4B1ke3QNAIYjnjV0B);strokeColor=#556a8a;spacingTop=-3;spacingBottom=-3;spacingLeft=-3;spacingRight=-3;labelBackgroundColor=none;rounded=0;html=1;whiteSpace=wrap;" parent="124" vertex="1">
          <mxGeometry width="20" height="6" as="geometry" />
        </mxCell>
        <mxCell id="127" style="vsdxID=349;fillColor=#dbeef3;gradientColor=none;shape=stencil(jZHdDsIgDIWfprdLpUMfYM73WDImRISF4d/bCzbGSTLd3Wn79eSkBWom3Y0KBE4x+JO6mT5qoD0IYZxWwcSkgFqgZvBBHYO/uJ7rsctkVmd/zQ533sO8IfDB1VZW9e7VOTBsjZvB8pveIC6z7+FK6xL/4VykoLqStEyvtv0TN4nPDQdjLb9gPi9vnlr8L2qf);strokeColor=#556a8a;spacingTop=-3;spacingBottom=-3;spacingLeft=-3;spacingRight=-3;labelBackgroundColor=none;rounded=0;html=1;whiteSpace=wrap;" parent="124" vertex="1">
          <mxGeometry y="6" width="19" height="18" as="geometry" />
        </mxCell>
        <mxCell id="175" style="vsdxID=350;edgeStyle=none;startArrow=none;endArrow=none;startSize=5;endSize=5;strokeColor=#556a8a;spacingTop=0;spacingBottom=0;spacingLeft=0;spacingRight=0;verticalAlign=middle;html=1;labelBackgroundColor=#ffffff;rounded=0;" parent="124" edge="1">
          <mxGeometry relative="1" as="geometry">
            <Array as="points" />
            <mxPoint x="10" y="12" as="sourcePoint" />
            <mxPoint x="10" y="24" as="targetPoint" />
          </mxGeometry>
        </mxCell>
        <mxCell id="147" style="vsdxID=385;fillColor=none;gradientColor=none;strokeColor=none;labelBackgroundColor=none;rounded=0;html=1;whiteSpace=wrap;" parent="1" vertex="1">
          <mxGeometry x="108" y="568" width="17" height="47" as="geometry" />
        </mxCell>
        <mxCell id="148" style="vsdxID=386;fillColor=#2e75b5;gradientColor=none;shape=stencil(fZLRDoIwDEW/Zq+krAjh0aD+BxEQIgIZoNvfOyyIm4NkD+162510l2HSl2mXMw79INp7/qqyoWR4YpxXTZmLatARwzPDpGhFfhPt2GSUd+mknKJH+5wmSOqDqYODouxA6YWU11GQ1De1c8q5F0Ac0/GpJvl2TXFjjETjTVD4W/4gwNFBEUVeGIQYz8dkAhPDBzDfdjKjLcb/bThR1o49tgXGDW6Tbq1lEWzTOHduk0rzE9Qem0RTu7UWHa/2Kqq6Jnd+faQD2476iqyM5zc=);strokeColor=none;strokeWidth=0;labelBackgroundColor=none;rounded=0;html=1;whiteSpace=wrap;" parent="147" vertex="1">
          <mxGeometry x="3" width="10" height="10" as="geometry" />
        </mxCell>
        <mxCell id="149" style="vsdxID=387;fillColor=#2e75b5;gradientColor=none;shape=stencil(1ZbJUsMwDIafJlePFluWjgzLezC00A5LmVCgvD0OgZYE2yQ9wU2J/z/55E1q+PRpdfm4bAietu3mdvm6XmxXDZ81ROuH1bJdb1PU8HnDp9ebdnnTbp4fFv3z42Wn7KL7zUv3hV3vU3RInYvgrX8DH08Xvfjque3V2A+iOkMFhBhIVD+N+N0JO6ppaajlmpZ/EMFJBip5wQcxNfKRsQoFQwzvPHFIPmMyBeAhFgxBzHkAZA9eKcQU/gIGQ5SAji1lCBKBPFbB8to8Vk47HUocSySjFBKMoPIz+zko4GL0SCoqTHHGguacZeDqnstDTNmBfwLfwAmKEJqyoacZ/AXrlASy1mMzCC4Yo3Bg1eiHCZA4ORhpmADC6BLgpDYOXlkjWBwyf6nLmMIuHU0IHIW9H10Dh59RTV1Cy6sno8VkD+zNS0oyyC9o3Z2MIRiyRQ2jVc9ON1eMx6159lNTzlwNvnrkavDzTtx/ZreuHhtwuo0VZA78fhvtS0j2Zuex+qgicrB/cWdLYxmupC/hzS29PwBLlZ5q855vVr73TIUWJcWHjut6fXfXN2z7vioF4w4tveq7Oz5/Bw==);strokeColor=none;strokeWidth=0;labelBackgroundColor=none;rounded=0;html=1;whiteSpace=wrap;" parent="147" vertex="1">
          <mxGeometry y="11" width="17" height="35" as="geometry" />
        </mxCell>
        <mxCell id="157" value="&lt;font style=&quot;font-size:11px;font-family:Segoe UI;color:#3f3f3f;direction:ltr;letter-spacing:0px;line-height:120%;opacity:1&quot;&gt;RBAC&lt;br/&gt;&lt;/font&gt;" style="verticalAlign=middle;align=center;vsdxID=394;fillColor=none;gradientColor=none;shape=stencil(nZBLDoAgDERP0z3SIyjew0SURgSD+Lu9kMZoXLhwN9O+tukAlrNpJg1SzDH4QW/URgNYgZTkjA4UkwJUgGXng+6DX1zLfmoymdXo17xh5zmRJ6Q42BWCfc2oJfdAr+Yv+AP9Cb7OJ3H/2JG1HNGz/84klThPVCc=);strokeColor=none;labelBackgroundColor=none;rounded=0;html=1;whiteSpace=wrap;" parent="1" vertex="1">
          <mxGeometry x="387" y="549" width="42" height="21" as="geometry" />
        </mxCell>
        <mxCell id="158" value="&lt;font style=&quot;font-size:11px;font-family:Segoe UI;color:#3f3f3f;direction:ltr;letter-spacing:0px;line-height:120%;opacity:1&quot;&gt;Dev/Ops&lt;br/&gt;&lt;/font&gt;" style="verticalAlign=middle;align=center;vsdxID=395;fillColor=none;gradientColor=none;shape=stencil(nZBLDoAgDERP0z3SIyjew0SURgSD+Lu9kMZoXLhwN9O+tukAlrNpJg1SzDH4QW/URgNYgZTkjA4UkwJUgGXng+6DX1zLfmoymdXo17xh5zmRJ6Q42BWCfc2oJfdAr+Yv+AP9Cb7OJ3H/2JG1HNGz/84klThPVCc=);strokeColor=none;labelBackgroundColor=none;rounded=0;html=1;whiteSpace=wrap;" parent="1" vertex="1">
          <mxGeometry x="87" y="617" width="60" height="28" as="geometry" />
        </mxCell>
        <mxCell id="Cpq1ZpIzhN0V-iwIdP6c-179" value="&lt;font style=&quot;font-size: 8px&quot;&gt;Movie API&lt;/font&gt;" style="text;html=1;strokeColor=none;fillColor=none;align=center;verticalAlign=middle;whiteSpace=wrap;rounded=0;" parent="1" vertex="1">
          <mxGeometry x="418" y="377" width="98" height="30" as="geometry" />
        </mxCell>
        <mxCell id="Cpq1ZpIzhN0V-iwIdP6c-241" value="" style="shape=image;verticalLabelPosition=bottom;labelBackgroundColor=#ffffff;verticalAlign=top;aspect=fixed;imageAspect=0;image=https://cdn4.iconfinder.com/data/icons/iconsimple-logotypes/512/github-512.png;" parent="1" vertex="1">
          <mxGeometry x="92.5" y="126" width="50" height="50" as="geometry" />
        </mxCell>
        <mxCell id="Cpq1ZpIzhN0V-iwIdP6c-243" style="vsdxID=134;edgeStyle=none;startArrow=block;endArrow=none;startSize=2;endSize=2;strokeColor=#0078d7;spacingTop=0;spacingBottom=0;spacingLeft=0;spacingRight=0;verticalAlign=middle;html=1;labelBackgroundColor=#ffffff;rounded=0;exitX=0.497;exitY=0.009;exitDx=0;exitDy=0;exitPerimeter=0;" parent="1" target="45" edge="1">
          <mxGeometry relative="1" as="geometry">
            <Array as="points" />
            <mxPoint x="255.33500000000004" y="318.32399999999996" as="sourcePoint" />
            <mxPoint x="159.18499999999995" y="302.26400000000007" as="targetPoint" />
          </mxGeometry>
        </mxCell>
        <mxCell id="52" value="&lt;font style=&quot;font-size:11px;font-family:Segoe UI;color:#000000;direction:ltr;letter-spacing:0px;line-height:120%;opacity:1&quot;&gt;Client Apps&lt;br/&gt;&lt;/font&gt;" style="verticalAlign=middle;align=center;vsdxID=181;fillColor=none;gradientColor=none;shape=stencil(nZBLDoAgDERP0z3SIyjew0SURgSD+Lu9kMZoXLhwN9O+tukAlrNpJg1SzDH4QW/URgNYgZTkjA4UkwJUgGXng+6DX1zLfmoymdXo17xh5zmRJ6Q42BWCfc2oJfdAr+Yv+AP9Cb7OJ3H/2JG1HNGz/84klThPVCc=);strokeColor=none;labelBackgroundColor=none;rounded=0;html=1;whiteSpace=wrap;" parent="1" vertex="1">
          <mxGeometry x="284" y="161.5" width="38" height="20" as="geometry" />
        </mxCell>
        <mxCell id="Cpq1ZpIzhN0V-iwIdP6c-245" value="&lt;font style=&quot;font-size: 11px ; font-family: &amp;#34;segoe ui&amp;#34; ; color: #000000 ; direction: ltr ; letter-spacing: 0px ; line-height: 120% ; opacity: 1&quot;&gt;Github&lt;br&gt;&lt;/font&gt;" style="verticalAlign=middle;align=center;vsdxID=181;fillColor=none;gradientColor=none;shape=stencil(nZBLDoAgDERP0z3SIyjew0SURgSD+Lu9kMZoXLhwN9O+tukAlrNpJg1SzDH4QW/URgNYgZTkjA4UkwJUgGXng+6DX1zLfmoymdXo17xh5zmRJ6Q42BWCfc2oJfdAr+Yv+AP9Cb7OJ3H/2JG1HNGz/84klThPVCc=);strokeColor=none;labelBackgroundColor=none;rounded=0;html=1;whiteSpace=wrap;" parent="1" vertex="1">
          <mxGeometry x="60" y="169" width="38" height="20" as="geometry" />
        </mxCell>
        <mxCell id="153" value="&lt;font style=&quot;font-size:11px;font-family:Segoe UI;color:#000000;direction:ltr;letter-spacing:0px;line-height:120%;opacity:1&quot;&gt;CI/CD&lt;br/&gt;&lt;/font&gt;" style="verticalAlign=top;align=center;vsdxID=274;fillColor=#f2f2f2;gradientColor=none;shape=stencil(nZBLDoAgDERP0z3SIyjew0SURgSD+Lu9kMZoXLhwN9O+tukAlrNpJg1SzDH4QW/URgNYgZTkjA4UkwJUgGXng+6DX1zLfmoymdXo17xh5zmRJ6Q42BWCfc2oJfdAr+Yv+AP9Cb7OJ3H/2JG1HNGz/84klThPVCc=);strokeColor=#bfbfbf;labelBackgroundColor=none;rounded=0;html=1;whiteSpace=wrap;" parent="1" vertex="1">
          <mxGeometry x="81" y="406" width="69" height="114" as="geometry" />
        </mxCell>
        <mxCell id="155" value="&lt;font style=&quot;font-size: 11px ; font-family: &amp;#34;segoe ui&amp;#34; ; color: #0078d7 ; direction: ltr ; letter-spacing: 0px ; line-height: 120% ; opacity: 1&quot;&gt;Jenkins&lt;br&gt;&lt;/font&gt;" style="verticalAlign=middle;align=center;vsdxID=173;fillColor=none;gradientColor=none;shape=stencil(nZBLDoAgDERP0z3SIyjew0SURgSD+Lu9kMZoXLhwN9O+tukAlrNpJg1SzDH4QW/URgNYgZTkjA4UkwJUgGXng+6DX1zLfmoymdXo17xh5zmRJ6Q42BWCfc2oJfdAr+Yv+AP9Cb7OJ3H/2JG1HNGz/84klThPVCc=);strokeColor=none;labelBackgroundColor=none;rounded=0;html=1;whiteSpace=wrap;" parent="1" vertex="1">
          <mxGeometry x="80" y="485" width="70" height="35" as="geometry" />
        </mxCell>
        <mxCell id="R70YHDZ5rD5ZLVwwbKBx-177" style="vsdxID=134;edgeStyle=none;startArrow=block;endArrow=none;startSize=2;endSize=2;strokeColor=#0078d7;spacingTop=0;spacingBottom=0;spacingLeft=0;spacingRight=0;verticalAlign=middle;html=1;labelBackgroundColor=#ffffff;rounded=0;entryX=0.5;entryY=1;entryDx=0;entryDy=0;" parent="1" target="Cpq1ZpIzhN0V-iwIdP6c-241" edge="1">
          <mxGeometry relative="1" as="geometry">
            <Array as="points" />
            <mxPoint x="117" y="407" as="sourcePoint" />
            <mxPoint x="117.00039486100033" y="186" as="targetPoint" />
          </mxGeometry>
        </mxCell>
        <mxCell id="y_L1rLnan1oXnGs_XWC_-179" style="vsdxID=174;edgeStyle=none;startArrow=block;endArrow=none;startSize=2;endSize=2;strokeColor=#0078d7;spacingTop=0;spacingBottom=0;spacingLeft=0;spacingRight=0;verticalAlign=middle;html=1;labelBackgroundColor=#ffffff;rounded=0;" parent="1" edge="1">
          <mxGeometry relative="1" as="geometry">
            <Array as="points" />
            <mxPoint x="579" y="449" as="sourcePoint" />
            <mxPoint x="579" y="430" as="targetPoint" />
          </mxGeometry>
        </mxCell>
        <mxCell id="XGJTlnXFi1ueoiBMRHXA-177" style="vsdxID=301;fillColor=none;gradientColor=none;labelBackgroundColor=none;rounded=0;strokeColor=none;html=1;whiteSpace=wrap;" parent="1" vertex="1">
          <mxGeometry x="442" y="275" width="46" height="46" as="geometry" />
        </mxCell>
        <mxCell id="XGJTlnXFi1ueoiBMRHXA-178" value="" style="verticalAlign=top;align=center;vsdxID=302;fillColor=#FFFFFF;gradientColor=none;shape=stencil(vVHLDsIgEPwajiQI6RfU+h8bu22JCGRB2/69kG1iazx58DazM/vIjjBtmiCi0CplCjecbZ8nYc5Ca+snJJsLEqYTph0C4Ujh4XvmEaqzont41gkL96naodXKrGF6YSfQtUi0OXXDVlqPfJNP6usotUhYbJIUMmQb/GGrAxpRljVycDBuc1hKM2LclX8/7H9nFfB+82Cd45T2+mcspcSRmu4F);strokeColor=#7f7f7f;labelBackgroundColor=none;rounded=0;html=1;whiteSpace=wrap;" parent="XGJTlnXFi1ueoiBMRHXA-177" vertex="1">
          <mxGeometry width="46" height="46" as="geometry" />
        </mxCell>
        <mxCell id="XGJTlnXFi1ueoiBMRHXA-179" style="vsdxID=303;fillColor=none;gradientColor=none;labelBackgroundColor=none;rounded=0;strokeColor=none;html=1;whiteSpace=wrap;" parent="XGJTlnXFi1ueoiBMRHXA-177" vertex="1">
          <mxGeometry x="13" y="10" width="20" height="24" as="geometry" />
        </mxCell>
        <mxCell id="XGJTlnXFi1ueoiBMRHXA-180" style="vsdxID=304;fillColor=#dbeef3;gradientColor=none;shape=stencil(lZDRDoIwDEW/pq+krBh8R/wPEoZrnBsZE/Xv3WyMYDTGt9v23Ka9QM1kulGDwikGf9QX7qMB2oFS7IwOHJMCaoGawQd9CP7seqnHLpNZnfycN1zFVyJmj8Kb1FVdYP3o7AW37Bb4Zk3jd/KvtdW2wHJleN71Ef95dBKvhwe2VvJazt8DSi0Jl9o7);strokeColor=none;spacingTop=-3;spacingBottom=-3;spacingLeft=-3;spacingRight=-3;labelBackgroundColor=none;rounded=0;html=1;whiteSpace=wrap;" parent="XGJTlnXFi1ueoiBMRHXA-179" vertex="1">
          <mxGeometry width="19" height="13" as="geometry" />
        </mxCell>
        <mxCell id="XGJTlnXFi1ueoiBMRHXA-181" style="vsdxID=305;fillColor=#dbeef3;gradientColor=none;shape=stencil(UzV2Ls5ILEhVNTIoLinKz04tz0wpyVA1dlE1MsrMy0gtyiwBslSNXVWNndPyi1LTi/JL81Ig/IJEkEoQKze/DGRCBUSfoYEBSI+RQSUq3w2iOCczD0mxKapaPCpRFVpa6pkZIisGMhAOSsvMyYH4B1ke3QNAIYjnjV0B);strokeColor=#556a8a;spacingTop=-3;spacingBottom=-3;spacingLeft=-3;spacingRight=-3;labelBackgroundColor=none;rounded=0;html=1;whiteSpace=wrap;" parent="XGJTlnXFi1ueoiBMRHXA-179" vertex="1">
          <mxGeometry width="20" height="6" as="geometry" />
        </mxCell>
        <mxCell id="XGJTlnXFi1ueoiBMRHXA-182" style="vsdxID=306;fillColor=#dbeef3;gradientColor=none;shape=stencil(jZHdDsIgDIWfprdLpUMfYM73WDImRISF4d/bCzbGSTLd3Wn79eSkBWom3Y0KBE4x+JO6mT5qoD0IYZxWwcSkgFqgZvBBHYO/uJ7rsctkVmd/zQ533sO8IfDB1VZW9e7VOTBsjZvB8pveIC6z7+FK6xL/4VykoLqStEyvtv0TN4nPDQdjLb9gPi9vnlr8L2qf);strokeColor=#556a8a;spacingTop=-3;spacingBottom=-3;spacingLeft=-3;spacingRight=-3;labelBackgroundColor=none;rounded=0;html=1;whiteSpace=wrap;" parent="XGJTlnXFi1ueoiBMRHXA-179" vertex="1">
          <mxGeometry y="6" width="19" height="18" as="geometry" />
        </mxCell>
        <mxCell id="XGJTlnXFi1ueoiBMRHXA-183" style="vsdxID=307;edgeStyle=none;startArrow=none;endArrow=none;startSize=5;endSize=5;strokeColor=#556a8a;spacingTop=0;spacingBottom=0;spacingLeft=0;spacingRight=0;verticalAlign=middle;html=1;labelBackgroundColor=#ffffff;rounded=0;" parent="XGJTlnXFi1ueoiBMRHXA-179" edge="1">
          <mxGeometry relative="1" as="geometry">
            <Array as="points" />
            <mxPoint x="10" y="12" as="sourcePoint" />
            <mxPoint x="10" y="24" as="targetPoint" />
          </mxGeometry>
        </mxCell>
        <mxCell id="XGJTlnXFi1ueoiBMRHXA-184" value="&lt;font style=&quot;font-size: 8px&quot;&gt;Movie UI&lt;/font&gt;" style="text;html=1;strokeColor=none;fillColor=none;align=center;verticalAlign=middle;whiteSpace=wrap;rounded=0;" parent="1" vertex="1">
          <mxGeometry x="416" y="313" width="98" height="30" as="geometry" />
        </mxCell>
        <mxCell id="OXFVEwI2tE2bpbJsLajP-177" value="" style="shape=image;imageAspect=0;aspect=fixed;verticalLabelPosition=bottom;verticalAlign=top;image=https://www.jenkins.io/images/logos/jenkins/256.png;" parent="1" vertex="1">
          <mxGeometry x="92.5" y="432" width="45" height="62.27" as="geometry" />
        </mxCell>
        <mxCell id="TYq_dASSvoaYxZohxJN0-177" value="AWS ELB" style="shape=image;imageAspect=0;aspect=fixed;verticalLabelPosition=bottom;verticalAlign=top;image=https://cdn.worldvectorlogo.com/logos/aws-elastic-load-balancing.svg;" parent="1" vertex="1">
          <mxGeometry x="232" y="321" width="43.5" height="49.71" as="geometry" />
        </mxCell>
        <mxCell id="TYq_dASSvoaYxZohxJN0-178" value="" style="shape=image;imageAspect=0;aspect=fixed;verticalLabelPosition=bottom;verticalAlign=top;image=https://symbols.getvecta.com/stencil_73/87_amazon-eks.bfd50c55e9.png;" parent="1" vertex="1">
          <mxGeometry x="527" y="176" width="110" height="110" as="geometry" />
        </mxCell>
        <mxCell id="TYq_dASSvoaYxZohxJN0-179" value="" style="shape=image;imageAspect=0;aspect=fixed;verticalLabelPosition=bottom;verticalAlign=top;image=https://upload.wikimedia.org/wikipedia/commons/thumb/5/5c/AWS_Simple_Icons_AWS_Cloud.svg/1024px-AWS_Simple_Icons_AWS_Cloud.svg.png;" parent="1" vertex="1">
          <mxGeometry x="590" y="140.45999999999998" width="80" height="49.54" as="geometry" />
        </mxCell>
        <mxCell id="3ahVvpDgFLLmqH5uwTWQ-178" value="" style="shape=image;imageAspect=0;aspect=fixed;verticalLabelPosition=bottom;verticalAlign=top;strokeColor=#FF8000;image=https://about.gitlab.com/images/devops-tools/docker-hub-logo.png;" vertex="1" parent="1">
          <mxGeometry x="150" y="126" width="72" height="57.38" as="geometry" />
        </mxCell>
        <mxCell id="3ahVvpDgFLLmqH5uwTWQ-179" value="" style="shape=image;verticalLabelPosition=bottom;labelBackgroundColor=#ffffff;verticalAlign=top;aspect=fixed;imageAspect=0;image=https://voicefoundry.com/wp-content/uploads/2019/05/vf-contact-center-ec2-logo.png;" vertex="1" parent="1">
          <mxGeometry x="137.5" y="493" width="35.5" height="40.96" as="geometry" />
        </mxCell>
        <mxCell id="3ahVvpDgFLLmqH5uwTWQ-180" value="" style="shape=image;verticalLabelPosition=bottom;labelBackgroundColor=#ffffff;verticalAlign=top;aspect=fixed;imageAspect=0;image=https://voicefoundry.com/wp-content/uploads/2019/05/vf-contact-center-ec2-logo.png;" vertex="1" parent="1">
          <mxGeometry x="616" y="484" width="35.5" height="40.96" as="geometry" />
        </mxCell>
        <mxCell id="3ahVvpDgFLLmqH5uwTWQ-182" value="" style="group" vertex="1" connectable="0" parent="1">
          <mxGeometry x="533" y="451.57" width="98" height="106.43" as="geometry" />
        </mxCell>
        <mxCell id="y_L1rLnan1oXnGs_XWC_-178" value="&lt;font style=&quot;font-size: 8px&quot;&gt;PostgreSQL&lt;/font&gt;" style="text;html=1;strokeColor=none;fillColor=none;align=center;verticalAlign=middle;whiteSpace=wrap;rounded=0;" parent="3ahVvpDgFLLmqH5uwTWQ-182" vertex="1">
          <mxGeometry y="76.43" width="98" height="30" as="geometry" />
        </mxCell>
        <mxCell id="3ahVvpDgFLLmqH5uwTWQ-181" value="" style="shape=image;imageAspect=0;aspect=fixed;verticalLabelPosition=bottom;verticalAlign=top;image=https://upload.wikimedia.org/wikipedia/commons/b/ba/Database-postgres.svg;" vertex="1" parent="3ahVvpDgFLLmqH5uwTWQ-182">
          <mxGeometry x="11.339999999999918" width="75.32" height="106.43" as="geometry" />
        </mxCell>
        <mxCell id="3ahVvpDgFLLmqH5uwTWQ-183" value="" style="verticalAlign=bottom;align=left;vsdxID=24;fillColor=none;gradientColor=none;shape=stencil(nZBLDoAgDERP0z3SIyjew0SURgSD+Lu9kMZoXLhwN9O+tukAlrNpJg1SzDH4QW/URgNYgZTkjA4UkwJUgGXng+6DX1zLfmoymdXo17xh5zmRJ6Q42BWCfc2oJfdAr+Yv+AP9Cb7OJ3H/2JG1HNGz/84klThPVCc=);strokeColor=#bfbfbf;spacingBottom=-1;spacingRight=-1;labelBackgroundColor=none;rounded=0;html=1;whiteSpace=wrap;" vertex="1" parent="1">
          <mxGeometry x="530" y="450" width="95" height="110" as="geometry" />
        </mxCell>
        <mxCell id="3ahVvpDgFLLmqH5uwTWQ-185" value="" style="shape=image;imageAspect=0;aspect=fixed;verticalLabelPosition=bottom;verticalAlign=top;image=https://lh3.googleusercontent.com/proxy/yzrdh2tOfsNtLkJ1Zt5986_Sh9IDj2lIVfnSNUw3w9XBfIi5C4-Ueb5QUOlQ-s4A5DeakOKSNuI1kwV0iQhoOJWGPnSHmi2JEJZj3AS1aV-lkUYdMWA;" vertex="1" parent="1">
          <mxGeometry x="490" y="385" width="18" height="17.93" as="geometry" />
        </mxCell>
        <mxCell id="3ahVvpDgFLLmqH5uwTWQ-186" value="" style="shape=image;imageAspect=0;aspect=fixed;verticalLabelPosition=bottom;verticalAlign=top;shadow=0;dashed=1;fontSize=12;strokeColor=#6666FF;strokeWidth=1;fillColor=none;image=https://cdn4.iconfinder.com/data/icons/logos-brands-5/24/react-512.png;" vertex="1" parent="1">
          <mxGeometry x="482" y="320" width="16" height="16" as="geometry" />
        </mxCell>
      </root>
    </mxGraphModel>
  </diagram>
</mxfile>
